
<svg width="600" height="600" viewBox="0 0 600 600" fill="none" xmlns="http://www.w3.org/2000/svg">
  <g opacity="0.5">
    <circle cx="300" cy="300" r="290" stroke="#7E69AB" stroke-width="2"/>
    <circle cx="300" cy="300" r="250" stroke="#7E69AB" stroke-width="2"/>
    <circle cx="300" cy="300" r="200" stroke="#7E69AB" stroke-width="2"/>
    <circle cx="300" cy="300" r="150" stroke="#7E69AB" stroke-width="2"/>
    <circle cx="300" cy="300" r="100" stroke="#7E69AB" stroke-width="2"/>
    <circle cx="300" cy="300" r="50" stroke="#7E69AB" stroke-width="2"/>
    
    <line x1="300" y1="10" x2="300" y2="590" stroke="#7E69AB" stroke-width="2"/>
    <line x1="10" y1="300" x2="590" y2="300" stroke="#7E69AB" stroke-width="2"/>
    
    <line x1="86.4" y1="86.4" x2="513.6" y2="513.6" stroke="#7E69AB" stroke-width="2"/>
    <line x1="86.4" y1="513.6" x2="513.6" y2="86.4" stroke="#7E69AB" stroke-width="2"/>
    
    <path d="M300 10C300 10 450 150 300 300" stroke="#7E69AB" stroke-width="2"/>
    <path d="M300 10C300 10 150 150 300 300" stroke="#7E69AB" stroke-width="2"/>
    <path d="M590 300C590 300 450 150 300 300" stroke="#7E69AB" stroke-width="2"/>
    <path d="M590 300C590 300 450 450 300 300" stroke="#7E69AB" stroke-width="2"/>
    <path d="M300 590C300 590 450 450 300 300" stroke="#7E69AB" stroke-width="2"/>
    <path d="M300 590C300 590 150 450 300 300" stroke="#7E69AB" stroke-width="2"/>
    <path d="M10 300C10 300 150 450 300 300" stroke="#7E69AB" stroke-width="2"/>
    <path d="M10 300C10 300 150 150 300 300" stroke="#7E69AB" stroke-width="2"/>
    
    <path d="M513.6 86.4C513.6 86.4 400 200 300 300" stroke="#7E69AB" stroke-width="2"/>
    <path d="M513.6 513.6C513.6 513.6 400 400 300 300" stroke="#7E69AB" stroke-width="2"/>
    <path d="M86.4 513.6C86.4 513.6 200 400 300 300" stroke="#7E69AB" stroke-width="2"/>
    <path d="M86.4 86.4C86.4 86.4 200 200 300 300" stroke="#7E69AB" stroke-width="2"/>
  </g>
</svg>
